<?xml version="1.0" encoding="UTF-8" standalone="no"?>
<!-- Created with Inkscape (http://www.inkscape.org/) -->

<svg
   xmlns:dc="http://purl.org/dc/elements/1.1/"
   xmlns:cc="http://creativecommons.org/ns#"
   xmlns:rdf="http://www.w3.org/1999/02/22-rdf-syntax-ns#"
   xmlns:svg="http://www.w3.org/2000/svg"
   xmlns="http://www.w3.org/2000/svg"
   xmlns:sodipodi="http://sodipodi.sourceforge.net/DTD/sodipodi-0.dtd"
   xmlns:inkscape="http://www.inkscape.org/namespaces/inkscape"
   width="63.999996"
   height="63.999996"
   viewBox="0 0 16.933332 16.933333"
   version="1.1"
   id="svg8"
   inkscape:version="0.92.5 (2060ec1f9f, 2020-04-08)"
   sodipodi:docname="logo.svg"
   inkscape:export-filename="logo-64x64.png"
   inkscape:export-xdpi="96.000008"
   inkscape:export-ydpi="96.000008">
  <title
     id="title1733">n³ logo</title>
  <defs
     id="defs2" />
  <sodipodi:namedview
     id="base"
     pagecolor="#ffffff"
     bordercolor="#666666"
     borderopacity="1.0"
     inkscape:pageopacity="0.0"
     inkscape:pageshadow="2"
     inkscape:zoom="8"
     inkscape:cx="53.2885"
     inkscape:cy="23.546498"
     inkscape:document-units="mm"
     inkscape:current-layer="layer1"
     showgrid="true"
     units="px"
     inkscape:snap-bbox="true"
     inkscape:snap-bbox-midpoints="false"
     inkscape:bbox-nodes="true"
     inkscape:object-nodes="false"
     inkscape:snap-global="true"
     inkscape:snap-nodes="true"
     inkscape:window-width="1918"
     inkscape:window-height="1060"
     inkscape:window-x="0"
     inkscape:window-y="18"
     inkscape:window-maximized="0"
     fit-margin-top="0"
     fit-margin-left="0"
     fit-margin-right="0"
     fit-margin-bottom="0">
    <inkscape:grid
       type="xygrid"
       id="grid815"
       empspacing="2"
       dotted="true"
       originx="16.933332"
       originy="-16.933331" />
    <inkscape:grid
       type="xygrid"
       id="grid1158"
       spacingx="16.933333"
       spacingy="16.933333"
       empcolor="#3fff3f"
       empopacity="0.25098039"
       enabled="true"
       color="#52ff3f"
       opacity="0.1254902"
       originx="16.933332"
       originy="-16.933331" />
  </sodipodi:namedview>
  <metadata
     id="metadata5">
    <rdf:RDF>
      <cc:Work
         rdf:about="">
        <dc:format>image/svg+xml</dc:format>
        <dc:type
           rdf:resource="http://purl.org/dc/dcmitype/StillImage" />
        <dc:title>n³ logo</dc:title>
        <dc:creator>
          <cc:Agent>
            <dc:title>Léo Villeveygoux</dc:title>
          </cc:Agent>
        </dc:creator>
      </cc:Work>
    </rdf:RDF>
  </metadata>
  <g
     inkscape:label="Calque 1"
     inkscape:groupmode="layer"
     id="layer1"
     transform="translate(16.933332,-263.13333)">
    <text
       id="text2057"
       y="265.38226"
       x="-16.668749"
       style="font-style:normal;font-variant:normal;font-weight:normal;font-stretch:normal;font-size:3.52777767px;line-height:80.00000119%;font-family:Monaco;-inkscape-font-specification:Monaco;letter-spacing:0px;word-spacing:0px;fill:#000000;fill-opacity:1;stroke:none;stroke-width:0.26458332px;stroke-linecap:butt;stroke-linejoin:miter;stroke-opacity:1"
       xml:space="preserve"><tspan
         style="font-size:3.52777767px;stroke-width:0.26458332px"
         y="267.80969"
         x="-16.668749"
         id="tspan2055"
         sodipodi:role="line" /></text>
    <g
       style="font-style:normal;font-variant:normal;font-weight:normal;font-stretch:normal;font-size:10.58333302px;line-height:80.00000119%;font-family:'DejaVu Sans';-inkscape-font-specification:'DejaVu Sans';letter-spacing:0px;word-spacing:0px;fill:#f57900;fill-opacity:1;stroke:none;stroke-width:0.26458332px;stroke-linecap:butt;stroke-linejoin:miter;stroke-opacity:1"
       id="g950"
       transform="translate(-52.006504,35.718777)">
      <rect
         id="rect915"
         style="opacity:1;fill:#ffffff;fill-opacity:1;fill-rule:nonzero;stroke:none;stroke-width:0.01181395;stroke-linecap:round;stroke-miterlimit:1.39999998;stroke-dasharray:none;stroke-opacity:1"
         y="231.80257"
         x="37.968449"
         height="2.756588"
         width="3.0378728" />
      <rect
         id="rect917"
         style="opacity:1;fill:#ffffff;fill-opacity:1;fill-rule:nonzero;stroke:none;stroke-width:0.01181395;stroke-linecap:round;stroke-miterlimit:1.39999998;stroke-dasharray:none;stroke-opacity:1"
         y="237.09071"
         x="35.633789"
         height="1.8846061"
         width="1.4626795" />
      <path
         sodipodi:nodetypes="cccccccccccccscccscssccccccccsccccccccccccccccccc"
         inkscape:connector-curvature="0"
         d="m 41.487114,240.5785 c 0.938534,-0.84507 1.188658,-1.11552 1.480069,-1.69657 0.320921,-0.63988 0.47318,-1.22312 0.505483,-1.9363 0.02009,-0.44367 -0.02591,-0.99383 -0.08833,-1.05625 -0.01983,-0.0198 -0.09943,0.0146 -0.196664,0.0851 -0.362858,0.26298 -0.902923,0.58065 -1.625707,0.95624 -1.458811,0.75805 -1.708252,0.98331 -2.259881,2.04078 -0.136798,0.26224 -0.312882,0.57127 -0.391298,0.68675 -0.348405,0.51305 -0.842285,0.74905 -1.167444,0.55329 -0.136991,-0.0825 -0.203307,-0.18758 -0.23386,-0.37066 -0.0206,-0.1234 -0.02893,-0.12948 -0.189186,-0.13815 -0.869164,-0.047 -1.473908,-0.49276 -1.665101,-1.22739 -0.125725,-0.48307 0.0075,-1.1762 0.35022,-1.82239 0.076,-0.14329 0.362204,-0.59246 0.636005,-0.99816 0.601277,-0.89093 0.78603,-1.21845 0.946654,-1.67813 0.120217,-0.34405 0.12288,-0.36238 0.124815,-1.01425 0.0025,-0.83103 -0.0022,-0.82067 0.662064,-1.47528 0.558243,-0.55015 0.795236,-0.87983 0.795158,-1.10615 -2.8e-5,-0.0813 -0.0332,-0.54616 -0.07371,-1.033 -0.08546,-1.02692 -0.08733,-1.08802 -0.03345,-1.08802 0.02217,0 0.515642,0.2854 1.096601,0.63421 0.58096,0.34881 1.083868,0.63511 1.117573,0.63621 0.03371,0.001 0.347056,-0.30174 0.696336,-0.67299 0.374566,-0.39812 0.657986,-0.67043 0.690964,-0.66387 0.03324,0.007 0.230015,0.39256 0.485181,0.95161 l 0.429268,0.94049 0.146868,-0.01 c 0.609325,-0.0396 1.42543,-0.0214 1.721069,0.0384 1.033646,0.20912 1.909331,0.68342 2.667218,1.44463 0.872014,0.87585 1.440968,1.88647 1.994305,3.54245 0.784909,2.34901 1.335796,5.56889 1.361402,7.99842 l 0.0076,0.7192 H 39.835669 c -0.01888,-0.4282 0.0079,-0.85904 0.147789,-1.39575 0.139882,-0.53671 0.378578,-0.83142 1.503656,-1.84447 z m -4.142289,-2.82806 c 2.39e-4,-0.13158 -0.102021,-0.29549 -0.222752,-0.35714 -0.367285,-0.18754 -0.694817,0.16351 -0.738403,0.79142 -0.01108,0.15956 -0.0093,0.31791 0.0038,0.35187 0.0276,0.071 0.04155,0.0639 0.42986,-0.20266 0.388306,-0.26657 0.527201,-0.43437 0.527446,-0.58349 z m 2.325632,-4.39503 c 0.254897,-0.25415 0.554045,-0.68731 0.554045,-0.80226 0,-0.0263 -0.04257,-0.064 -0.09461,-0.0838 -0.2361,-0.0898 -0.544028,0.008 -0.743702,0.23492 -0.109168,0.12433 -0.747614,1.16431 -0.747614,1.2178 0,0.06 0.167933,0.0101 0.419382,-0.11858 0.25145,-0.12868 0.410799,-0.24697 0.612499,-0.44808 z"
         style="fill:#000000;fill-opacity:1;stroke:#ffffff;stroke-width:1.05833328;stroke-linecap:square;stroke-linejoin:miter;stroke-miterlimit:4;stroke-dasharray:none;paint-order:markers stroke fill"
         id="path919" />
      <path
         id="path921"
         style="font-style:normal;font-variant:normal;font-weight:bold;font-stretch:normal;font-size:14.11111069px;font-family:'Ubuntu Mono';-inkscape-font-specification:'Ubuntu Mono Bold';fill:#000000;stroke-width:0.23356323px"
         d="m 41.952335,237.76793 c 0.277182,-0.0747 0.617361,-0.14533 1.020535,-0.21177 0.411575,-0.0665 0.856747,-0.0997 1.335516,-0.0997 0.470371,0 0.860946,0.0664 1.171725,0.19932 0.310781,0.12456 0.554366,0.30725 0.730754,0.54808 0.18479,0.23253 0.314982,0.51489 0.390577,0.84706 0.0756,0.32387 0.113393,0.68512 0.113393,1.08374 v 3.15486 h -1.5875 v -2.95556 c 0,-0.5481 -0.06013,-0.94256 -0.180399,-1.18338 -0.120264,-0.24083 -0.364802,-0.36124 -0.733616,-0.36124 -0.112248,0 -0.224495,0.004 -0.336742,0.0125 -0.10423,0.008 -0.216478,0.0208 -0.336743,0.0373 v 4.45037 h -1.5875 z"
         inkscape:connector-curvature="0"
         sodipodi:nodetypes="ccscccsccscsccccc" />
      <path
         sodipodi:nodetypes="csc"
         inkscape:connector-curvature="0"
         id="path923"
         d="m 44.333584,230.85413 c 2.581826,-0.26129 3.680315,1.41881 4.618485,3.162 0.434188,0.80675 1.529824,4.59521 1.731515,9.00884"
         style="opacity:1;fill:none;fill-rule:evenodd;stroke:#ffffff;stroke-width:0.5291667;stroke-linecap:round;stroke-linejoin:round;stroke-miterlimit:4;stroke-dasharray:none;stroke-opacity:1" />
      <path
         style="color:#000000;font-style:normal;font-variant:normal;font-weight:bold;font-stretch:normal;font-size:14.11111069px;line-height:80.00000119%;font-family:'Ubuntu Mono';-inkscape-font-specification:'Ubuntu Mono Bold';font-variant-ligatures:normal;font-variant-position:normal;font-variant-caps:normal;font-variant-numeric:normal;font-variant-alternates:normal;font-feature-settings:normal;text-indent:0;text-align:start;text-decoration:none;text-decoration-line:none;text-decoration-style:solid;text-decoration-color:#000000;letter-spacing:0px;word-spacing:0px;text-transform:none;writing-mode:lr-tb;direction:ltr;text-orientation:mixed;dominant-baseline:auto;baseline-shift:baseline;text-anchor:start;white-space:normal;shape-padding:0;clip-rule:nonzero;display:inline;overflow:visible;visibility:visible;opacity:1;isolation:auto;mix-blend-mode:normal;color-interpolation:sRGB;color-interpolation-filters:linearRGB;solid-color:#000000;solid-opacity:1;vector-effect:none;fill:#000000;fill-opacity:1;fill-rule:nonzero;stroke:none;stroke-width:1.16429496;stroke-linecap:butt;stroke-linejoin:miter;stroke-miterlimit:4;stroke-dasharray:none;stroke-dashoffset:0;stroke-opacity:1;paint-order:markers stroke fill;color-rendering:auto;image-rendering:auto;shape-rendering:auto;text-rendering:auto;enable-background:accumulate"
         d="m 48.388672,233.66406 c -3.525921,0.89424 -2.467588,6.45049 0.896553,5.29491 0.277432,-0.0861 0.529922,-0.20786 0.742188,-0.38476 l 0.0059,-0.006 0.0078,-0.008 c 0.200661,-0.17837 0.36145,-0.4014 0.457031,-0.65235 0.08874,-0.23296 -0.07914,-0.44979 -0.07914,-0.70373 -0.264584,-1.5875 -0.264584,-2.11666 -1.157186,-3.41735 -0.0012,-3.9e-4 -0.0027,3.9e-4 -0.0039,0 -0.266042,-0.0881 -0.551145,-0.12305 -0.86914,-0.12305 z"
         id="path925"
         inkscape:connector-curvature="0"
         sodipodi:nodetypes="ccccccccccc" />
      <path
         sodipodi:nodetypes="ccscccsccscsccccc"
         inkscape:connector-curvature="0"
         d="m 42.481502,238.2971 c 0.277182,-0.0747 0.617361,-0.14533 1.020535,-0.21177 0.411575,-0.0665 0.856747,-0.0997 1.335516,-0.0997 0.470371,0 0.860946,0.0664 1.171725,0.19932 0.310781,0.12456 0.554366,0.30725 0.730754,0.54808 0.18479,0.23253 0.314982,0.51489 0.390577,0.84706 0.0756,0.32387 0.113393,0.68512 0.113393,1.08374 v 2.62573 h -1.5875 v -2.26336 c 0,-0.51127 -0.06013,-0.87922 -0.180399,-1.10385 -0.120264,-0.22465 -0.364802,-0.33697 -0.733616,-0.33697 -0.112248,0 -0.224495,0.004 -0.336742,0.0117 -0.10423,0.007 -0.216478,0.0194 -0.336743,0.0348 v 3.65771 h -1.5875 z"
         style="font-style:normal;font-variant:normal;font-weight:bold;font-stretch:normal;font-size:14.11111069px;font-family:'Ubuntu Mono';-inkscape-font-specification:'Ubuntu Mono Bold';fill:#ffffff;stroke-width:0.23356323px"
         id="path927" />
      <path
         inkscape:connector-curvature="0"
         id="path929"
         style="font-style:normal;font-variant:normal;font-weight:bold;font-stretch:normal;font-size:14.11111069px;font-family:'Ubuntu Mono';-inkscape-font-specification:'Ubuntu Mono Bold';fill:#ffffff;stroke:none;stroke-width:1.16429496;stroke-miterlimit:4;stroke-dasharray:none;paint-order:markers stroke fill"
         d="m 48.284276,237.55052 q 0.368361,0 0.506496,-0.11511 0.149645,-0.11512 0.149645,-0.27628 0,-0.4144 -0.725209,-0.4144 H 47.78929 v -0.84033 h 0.425918 q 0.241736,0 0.391383,-0.0921 0.149647,-0.0921 0.149647,-0.28779 0,-0.32231 -0.448939,-0.32231 -0.241738,0 -0.471962,0.0806 -0.230226,0.0806 -0.448941,0.17266 l -0.391382,-0.80578 q 0.253249,-0.16115 0.63312,-0.27626 0.391383,-0.12662 0.759743,-0.12662 0.414405,0 0.690677,0.0921 0.28778,0.0921 0.46045,0.25326 0.172659,0.14964 0.241735,0.36836 0.06909,0.20721 0.06909,0.43744 0,0.2187 -0.103625,0.41439 -0.09207,0.18419 -0.322314,0.37988 0.333821,0.14965 0.471953,0.4144 0.149648,0.25326 0.149648,0.56406 0,0.28778 -0.09208,0.52951 -0.09207,0.24173 -0.299287,0.42592 -0.207203,0.17268 -0.541028,0.27628 -0.333827,0.10365 -0.817301,0.10365 -0.345337,0 -0.748232,-0.0691 -0.391384,-0.0806 -0.621608,-0.20719 l 0.241736,-0.9094 q 0.345339,0.14966 0.587075,0.1957 0.241736,0.0345 0.529518,0.0345 z" />
    </g>
  </g>
  <g
     inkscape:groupmode="layer"
     id="layer2"
     inkscape:label="construct"
     style="display:none"
     transform="translate(16.933332,-33.866672)">
    <circle
       transform="translate(0,-229.26665)"
       r="3.96875"
       cy="237.73332"
       cx="6.614583"
       id="circle910"
       style="fill:#000000;fill-opacity:1;stroke:none;stroke-width:1.05833328;stroke-linecap:round;stroke-linejoin:round;stroke-miterlimit:4;stroke-dasharray:none;stroke-opacity:1" />
    <g
       transform="translate(0,-229.26665)"
       id="g916">
      <ellipse
         cy="237.73332"
         cx="6.614583"
         id="ellipse912"
         style="fill:#a40000;fill-opacity:1;stroke:none;stroke-width:0.51141423;stroke-linecap:round;stroke-linejoin:round;stroke-miterlimit:4;stroke-dasharray:none;stroke-opacity:1"
         rx="1.852083"
         ry="1.8520888" />
      <rect
         style="fill:#a40000;fill-opacity:1;stroke:none;stroke-width:1.0930419;stroke-linecap:round;stroke-linejoin:round;stroke-miterlimit:4;stroke-dasharray:none;stroke-opacity:1"
         id="rect914"
         width="8.4666662"
         height="4.2333331"
         x="2.3812499"
         y="237.73332" />
    </g>
    <circle
       transform="translate(0,-229.26665)"
       r="2.1166668"
       cy="233.49998"
       cx="12.7"
       id="circle940"
       style="fill:#73d216;fill-opacity:1;stroke:none;stroke-width:1.20952392;stroke-linecap:round;stroke-linejoin:round;stroke-miterlimit:4;stroke-dasharray:none;stroke-opacity:1" />
    <circle
       r="0.79375017"
       cy="4.2333345"
       cx="12.7"
       id="circle942"
       style="fill:#a40000;fill-opacity:1;stroke:none;stroke-width:0.79375017;stroke-linecap:round;stroke-linejoin:round;stroke-miterlimit:4;stroke-dasharray:none;stroke-opacity:1" />
    <circle
       style="fill:#73d216;fill-opacity:1;stroke:none;stroke-width:1.20952392;stroke-linecap:round;stroke-linejoin:round;stroke-miterlimit:4;stroke-dasharray:none;stroke-opacity:1"
       id="circle944"
       cx="12.7"
       cy="7.1437502"
       r="2.1166668" />
    <circle
       style="fill:#a40000;fill-opacity:1;stroke:none;stroke-width:0.79379129;stroke-linecap:round;stroke-linejoin:round;stroke-miterlimit:4;stroke-dasharray:none;stroke-opacity:1"
       id="circle946"
       cx="12.7"
       cy="7.1437497"
       r="0.79379129" />
    <rect
       y="4.2333331"
       x="9.5249996"
       height="2.9104168"
       width="3.175"
       id="rect948"
       style="fill:#fcaf3e;fill-opacity:1;stroke:none;stroke-width:0.97352505;stroke-linecap:round;stroke-linejoin:round;stroke-miterlimit:4;stroke-dasharray:none;stroke-opacity:1" />
    <path
       sodipodi:nodetypes="sccssccccccccscccs"
       inkscape:connector-curvature="0"
       id="path979"
       d="m 48,8 c -4.418278,2e-7 -8,3.581722 -8,8 h 5 c 0,-1.656854 1.343146,-3 3,-3 1.656854,0 3,1.343146 3,3 0,1.656854 -1.343146,3 -3,3 h -1.999999 v 5 H 48 c 1.656819,8.6e-5 2.999914,1.343181 3,3 -8.6e-5,1.656819 -1.343181,2.999914 -3,3 -1.656819,-8.6e-5 -2.999914,-1.343181 -3,-3 h -5 c 0,4.418278 3.581722,8 8,8 4.418278,0 8,-3.581722 8,-8 C 55.9987,24.951458 55.211502,22.981487 53.800781,21.496094 55.209646,20.01266 55.996653,18.045841 56,16 56,11.581722 52.418278,8.0000002 48,8 Z"
       style="display:inline;fill:#000000;fill-opacity:1;stroke:none;stroke-width:4.57142878;stroke-linecap:round;stroke-linejoin:round;stroke-miterlimit:4;stroke-dasharray:none;stroke-opacity:1"
       transform="scale(0.26458333)" />
    <path
       transform="translate(0,-229.26665)"
       inkscape:connector-curvature="0"
       id="path981"
       d="m 12.7,233.49998 -2.645833,-1.05833 v 5.29167 L 12.7,236.4104 11.90625,235.35207 v -1.32292 z"
       style="fill:#729fcf;fill-rule:evenodd;stroke:none;stroke-width:0.26458332px;stroke-linecap:butt;stroke-linejoin:miter;stroke-opacity:1" />
    <rect
       transform="translate(0,-229.26665)"
       y="233.76457"
       x="2.1166666"
       height="9.7895784"
       width="2.1166668"
       id="rect986"
       style="fill:#000000;fill-opacity:1;stroke:none;stroke-width:1.00538266;stroke-linecap:round;stroke-linejoin:round;stroke-miterlimit:4;stroke-dasharray:none;stroke-opacity:1" />
    <rect
       transform="translate(0,-229.26665)"
       style="fill:#000000;fill-opacity:1;stroke:none;stroke-width:0.7752502;stroke-linecap:round;stroke-linejoin:round;stroke-miterlimit:4;stroke-dasharray:none;stroke-opacity:1"
       id="rect988"
       width="2.1166668"
       height="5.8208303"
       x="7.9374995"
       y="237.73332" />
    <path
       transform="translate(0,-229.26665)"
       inkscape:connector-curvature="0"
       id="path990"
       d="m 6.0854167,233.76457 a 3.9687499,3.9687499 0 0 0 -3.96875,3.96875 h 2.1166667 a 1.8520829,1.8520888 0 0 1 1.8520833,-1.85209 1.8520829,1.8520888 0 0 1 1.8520833,1.85209 h 2.116667 a 3.9687499,3.9687499 0 0 0 -3.9687503,-3.96875 z"
       style="fill:#000000;fill-opacity:1;stroke:none;stroke-width:1.05833328;stroke-linecap:round;stroke-linejoin:round;stroke-miterlimit:4;stroke-dasharray:none;stroke-opacity:1" />
    <text
       transform="translate(0,-229.26665)"
       id="text1084"
       y="259.45395"
       x="2.2241535"
       style="font-style:normal;font-variant:normal;font-weight:normal;font-stretch:normal;font-size:10.58333302px;line-height:80.00000119%;font-family:'DejaVu Sans';-inkscape-font-specification:'DejaVu Sans';letter-spacing:0px;word-spacing:0px;fill:#000000;fill-opacity:1;stroke:none;stroke-width:0.26458332px;stroke-linecap:butt;stroke-linejoin:miter;stroke-opacity:1"
       xml:space="preserve"><tspan
         style="font-style:normal;font-variant:normal;font-weight:bold;font-stretch:normal;font-family:'DejaVu Sans';-inkscape-font-specification:'DejaVu Sans Bold';stroke-width:0.26458332px"
         y="259.45395"
         x="2.2241535"
         id="tspan1082"
         sodipodi:role="line">n³</tspan></text>
    <text
       transform="translate(0,-229.26665)"
       xml:space="preserve"
       style="font-style:normal;font-variant:normal;font-weight:normal;font-stretch:normal;font-size:10.58333302px;line-height:80.00000119%;font-family:'DejaVu Sans';-inkscape-font-specification:'DejaVu Sans';letter-spacing:0px;word-spacing:0px;fill:#000000;fill-opacity:1;stroke:none;stroke-width:0.26458332px;stroke-linecap:butt;stroke-linejoin:miter;stroke-opacity:1"
       x="18.099154"
       y="259.45395"
       id="text1088"><tspan
         sodipodi:role="line"
         id="tspan1086"
         x="18.099154"
         y="259.45395"
         style="font-style:normal;font-variant:normal;font-weight:bold;font-stretch:normal;font-family:'Ubuntu Mono';-inkscape-font-specification:'Ubuntu Mono Bold';stroke-width:0.26458332px">n³</tspan></text>
    <text
       xml:space="preserve"
       style="font-style:normal;font-variant:normal;font-weight:normal;font-stretch:normal;font-size:10.58333302px;line-height:80.00000119%;font-family:'DejaVu Sans';-inkscape-font-specification:'DejaVu Sans';letter-spacing:0px;word-spacing:0px;fill:#000000;fill-opacity:1;stroke:none;stroke-width:0.26458332px;stroke-linecap:butt;stroke-linejoin:miter;stroke-opacity:1"
       x="36.09082"
       y="259.45395"
       id="text1092"
       transform="translate(0,-229.26665)"><tspan
         sodipodi:role="line"
         id="tspan1090"
         x="36.09082"
         y="259.45395"
         style="font-style:normal;font-variant:normal;font-weight:bold;font-stretch:normal;font-family:'Source Code Pro';-inkscape-font-specification:'Source Code Pro Bold';stroke-width:0.26458332px">n³</tspan></text>
    <text
       transform="translate(0,-229.26665)"
       id="text1096"
       y="259.45395"
       x="51.965824"
       style="font-style:normal;font-variant:normal;font-weight:normal;font-stretch:normal;font-size:10.58333302px;line-height:80.00000119%;font-family:'DejaVu Sans';-inkscape-font-specification:'DejaVu Sans';letter-spacing:0px;word-spacing:0px;fill:#000000;fill-opacity:1;stroke:none;stroke-width:0.26458332px;stroke-linecap:butt;stroke-linejoin:miter;stroke-opacity:1"
       xml:space="preserve"><tspan
         style="font-style:normal;font-variant:normal;font-weight:normal;font-stretch:normal;font-family:Monaco;-inkscape-font-specification:Monaco;stroke-width:0.26458332px"
         y="259.45395"
         x="51.965824"
         id="tspan1094"
         sodipodi:role="line">n³</tspan></text>
  </g>
</svg>
